<svg width="50" height="50" viewBox="0 0 50 50" fill="none" xmlns="http://www.w3.org/2000/svg">
<path d="M25 0C28.4524 0 31.6964 0.654762 34.7321 1.96429C37.7679 3.27381 40.4167 5.05952 42.6786 7.32143C44.9405 9.58333 46.7262 12.2321 48.0357 15.2679C49.3452 18.3036 50 21.5476 50 25C50 28.4524 49.3452 31.6964 48.0357 34.7321C46.7262 37.7679 44.9405 40.4167 42.6786 42.6786C40.4167 44.9405 37.7679 46.7262 34.7321 48.0357C31.6964 49.3452 28.4524 50 25 50C21.5476 50 18.3036 49.3452 15.2679 48.0357C12.2321 46.7262 9.58333 44.9405 7.32143 42.6786C5.05952 40.4167 3.27381 37.7679 1.96429 34.7321C0.654762 31.6964 0 28.4524 0 25C0 21.5476 0.654762 18.3036 1.96429 15.2679C3.27381 12.2321 5.05952 9.58333 7.32143 7.32143C9.58333 5.05952 12.2321 3.27381 15.2679 1.96429C18.3036 0.654762 21.5476 0 25 0ZM10.9524 31.4881L18.4524 26.131L10.9524 20.7738V31.4881ZM39.0476 33.869L29.881 27.3214L25 30.8333L20.0595 27.3214L10.9524 33.869V37.5H39.0476V33.869ZM39.0476 20.7738L31.5476 26.131L39.0476 31.4881V20.7738ZM39.0476 12.5H10.9524V16.131L25 26.131L39.0476 16.131V12.5Z" fill="black"/>
</svg>
