<svg width="50" height="50" viewBox="0 0 50 50" fill="none" xmlns="http://www.w3.org/2000/svg">
<path d="M25 50C38.8071 50 50 38.8071 50 25C50 11.1929 38.8071 0 25 0C11.1929 0 0 11.1929 0 25C0 38.8071 11.1929 50 25 50Z" fill="black"/>
<path d="M32.5 12.8125H17.5C14.8958 12.8125 12.8125 14.8958 12.8125 17.5V32.5C12.8125 35.1042 14.8958 37.1875 17.5 37.1875H32.5C35.1042 37.1875 37.1875 35.1042 37.1875 32.5V17.5C37.1875 14.8958 35.1042 12.8125 32.5 12.8125ZM33.8542 15.625H34.375V19.7917H30.2083V15.625H33.8542ZM21.5625 22.5C22.2917 21.4583 23.6459 20.7292 25 20.7292C26.3542 20.7292 27.7084 21.4583 28.4375 22.5C28.9583 23.2292 29.2709 24.0625 29.2709 25C29.2709 27.3958 27.2917 29.2708 25 29.2708C22.7084 29.2708 20.7292 27.3958 20.7292 25C20.7292 24.0625 21.0417 23.2292 21.5625 22.5ZM34.7917 32.5C34.7917 33.75 33.75 34.7917 32.5 34.7917H17.5C16.25 34.7917 15.2083 33.75 15.2083 32.5V22.5H18.8542C18.5417 23.2292 18.3333 24.1667 18.3333 25C18.3333 28.6458 21.3542 31.6667 25 31.6667C28.6458 31.6667 31.6667 28.6458 31.6667 25C31.6667 24.1667 31.4583 23.2292 31.1459 22.5H34.7917L34.7917 32.5Z" fill="white"/>
</svg>
