<svg width="50" height="50" viewBox="0 0 50 50" fill="none" xmlns="http://www.w3.org/2000/svg">
<path d="M25 50C38.8071 50 50 38.8071 50 25C50 11.1929 38.8071 0 25 0C11.1929 0 0 11.1929 0 25C0 38.8071 11.1929 50 25 50Z" fill="black"/>
<path d="M13.3018 23.8198V19.8271C13.3018 19.6807 13.3164 19.5903 13.5679 19.5903H16.9541C17.5459 19.5903 17.8711 20.0933 18.1079 21.0396L18.3003 21.7939H18.877C18.9805 19.6499 19.0688 18.7178 19.0688 18.7178C19.0688 18.7178 17.6196 18.8804 16.7622 18.8804H12.4292L10.1074 18.8071V19.4282L10.8911 19.5747C11.4385 19.6782 11.5713 19.7964 11.6157 20.2993C11.6157 20.2993 11.6602 21.7778 11.6602 24.2183C11.6602 26.6587 11.6157 28.1245 11.6157 28.1245C11.6157 28.5679 11.438 28.7305 10.8911 28.8345L10.1074 28.981V29.6016L12.4292 29.5278H16.3037C17.1763 29.5278 19.2021 29.6016 19.2021 29.6016C19.2466 29.0693 19.5439 26.6587 19.5869 26.3931H19.0396L18.4629 27.7114C18.0044 28.7461 17.3398 28.8203 16.5996 28.8203H14.396C13.6567 28.8203 13.3018 28.5244 13.3018 27.8887V24.5151C13.3018 24.5151 14.9131 24.5151 15.4756 24.5596C15.8896 24.5894 16.1411 24.7061 16.2744 25.2842L16.4521 26.0532H17.0869L17.041 24.1157L17.1299 22.1626H16.4951L16.2881 23.02C16.1548 23.582 16.0664 23.6855 15.4893 23.7446C14.8389 23.8188 13.3008 23.8037 13.3008 23.8037V23.8184L13.3018 23.8198ZM22.0703 20.2417C21.8633 21.1587 21.6562 21.8682 20.9316 22.3413C20.4883 22.6367 20.0444 22.7402 19.8672 22.7554V23.3174H21.1855V27.8584C21.1855 29.1279 22.0288 29.7515 23.1523 29.7515C24.0249 29.7515 24.9268 29.3818 25.2373 28.6128L24.9268 28.2134C24.7803 28.4648 24.3062 28.8345 23.7144 28.8345C23.064 28.8345 22.709 28.3906 22.709 27.2671V23.2583L24.8979 23.4209L25.0161 22.415L22.7051 22.5039V20.2578L22.0703 20.2432V20.2417ZM26.7432 27.2241L26.1812 27.2388C26.2104 27.564 26.2256 27.978 26.2256 28.3618C26.2256 28.7612 26.2109 29.1309 26.1812 29.3081C26.1812 29.3081 27.3042 29.7217 28.4438 29.7217C29.9819 29.7217 31.209 28.9824 31.209 27.5332C31.209 25.0493 27.4824 25.4189 27.4824 23.7476C27.4824 23.0527 28.1035 22.7866 28.7837 22.7866C29.3159 22.7866 29.7603 22.979 29.8481 23.2603L30.2178 24.3691L30.7651 24.3398C30.8096 23.748 30.8389 23.0703 30.9277 22.521C30.4546 22.314 29.4629 22.1953 28.8428 22.1953C27.3931 22.1953 26.2251 22.8301 26.2251 24.251C26.2251 26.7202 29.8628 26.2178 29.8628 28.0366C29.8628 28.687 29.4634 29.1455 28.5615 29.1455C27.7314 29.1455 27.3193 28.7168 27.1572 28.2876L26.7427 27.2231L26.7432 27.2241ZM35.6558 28.9331C34.7998 31.3257 33.7515 31.9438 32.8071 31.9438C32.4082 31.9438 32.2168 31.7666 32.1572 31.4868L31.936 30.335L31.3159 30.3643C31.1978 31.0435 31.0796 31.7964 30.9175 32.415C31.2866 32.6953 31.9062 32.8433 32.3936 32.8433C33.4121 32.8433 34.9619 32.71 36.3789 29.3447L38.7554 23.7358C38.9473 23.2783 39.021 23.2339 39.582 23.0122L39.8926 22.8955V22.3789L38.4902 22.4526L36.9849 22.3789V22.8955L37.3687 23.0132C37.7524 23.1313 37.9297 23.2788 37.9297 23.5449C37.9297 23.6777 37.8853 23.8105 37.811 24.0171C37.5898 24.5786 36.2168 27.9141 35.8481 28.6226L36.2168 28.4893C35.5674 26.8804 34.5786 24.1924 34.4312 23.7368C34.4034 23.6609 34.3884 23.5808 34.3867 23.5C34.3867 23.2642 34.5488 23.0718 34.9033 22.998L35.3916 22.895V22.3789L33.3691 22.4526L31.7603 22.3789V22.8955L32.0259 22.9839C32.395 23.1021 32.4834 23.2056 32.7051 23.7222C33.9297 26.5269 34.5059 28.0615 35.2876 30.0698L35.6572 28.9331H35.6558Z" fill="white"/>
</svg>
